<svg id="Layer_1" data-name="Layer 1" xmlns="http://www.w3.org/2000/svg" viewBox="0 0 512 512"><title>plate-cutlery-flat</title><polygon points="322.01 426.85 323.37 426.07 322.01 426.07 322.01 426.85" fill="#e6d6a6" fill-rule="evenodd"/><rect y="9.14" width="512" height="493.72" rx="54.99" ry="54.99" transform="translate(512) rotate(90)" fill="#e6d6a6"/><rect x="20.23" y="11.1" width="471.53" height="489.81" rx="43.89" ry="43.89" fill="#647980"/><path d="M142.84,254.13a106,106,0,1,1,106,106A106.08,106.08,0,0,1,142.84,254.13Zm196.2,0a90.18,90.18,0,1,0-90.16,90.16A90.22,90.22,0,0,0,339,254.13Z" fill="#eedaa6" fill-rule="evenodd"/><path d="M248.88,173.77a80.36,80.36,0,1,1-80.36,80.36A80.38,80.38,0,0,1,248.88,173.77Z" fill="#eedaa6" fill-rule="evenodd"/><path d="M117.41,161.52a1.68,1.68,0,1,0-3.36,0l-.15,36.75h0l0,5.24h0a2.22,2.22,0,0,1-2.23,2.32,2.29,2.29,0,0,1-2.22-2.35v-2.32h0l.16-39.4a1.68,1.68,0,0,0-3.36,0l-.16,39.3h0v2.25a2.32,2.32,0,1,1-4.64,0l0-5.24s0,0,0,0l.15-36.44a1.68,1.68,0,0,0-3.36,0l-.15,36.69a.43.43,0,0,1,0,.07l0,5.61a2.3,2.3,0,1,1-4.59.07h0v-.07a.07.07,0,0,0,0,0l0-5.61a0,0,0,0,1,0,0l.15-36.69a1.68,1.68,0,1,0-3.36,0l-.22,52.52c0,.06,0,.12,0,.17s0,.39,0,.59v.69c0,7.65,3.9,13.87,8.79,13.89H99L95.2,354.88c0,.27,0,.55,0,.83a8,8,0,0,0,15.93.33s0,0,0,0v-.08s0-.1,0-.15,0-.32,0-.48l-2.81-125.84h0c4.89,0,8.87-6.17,8.9-13.82v-.68c0-.23,0-.46,0-.69a1.31,1.31,0,0,0,0-.23Z" fill="#eedaa6"/><path d="M421.91,202.89c.08-18.36-10.82-43.2-24.37-43.26s-24.65,24.7-24.73,43.06c-.06,15.78,10.22,24.66,19.83,26.87L388.81,355.2c0,.23,0,.46,0,.7a8,8,0,1,0,15.91-.89l-2.79-125.39c9.83-2.09,20-10.89,20-26.73" fill="#eedaa6"/></svg>